<svg aria-hidden="true" style="position: absolute; width: 0; height: 0; overflow: hidden;" version="1.1" xmlns="http://www.w3.org/2000/svg" xmlns:xlink="http://www.w3.org/1999/xlink">
<defs>
<symbol id="icon-close" viewBox="0 0 32 32">
<path fill="none" stroke="#f7fbfb" style="stroke: var(--color1, #f7fbfb)" stroke-linejoin="round" stroke-linecap="round" stroke-miterlimit="4" stroke-width="2.9091" d="M30.545 30.545l-29.091-29.091M30.545 1.455l-29.091 29.091"></path>
</symbol>
<symbol id="icon-close1" viewBox="0 0 32 32">
<path stroke-linejoin="round" stroke-linecap="round" stroke-miterlimit="4" stroke-width="3.5556" d="M29.333 29.333l-26.667-26.667M29.333 2.667l-26.667 26.667"></path>
</symbol>
<symbol id="icon-copyright" viewBox="0 0 32 32">
<path fill="none" stroke="#a3a5a3" style="stroke: var(--color2, #a3a5a3)" stroke-linejoin="round" stroke-linecap="round" stroke-miterlimit="4" stroke-width="3.4286" d="M20.571 13.143s-1.714-2.286-4.571-2.286-5.143 2.286-5.143 5.143 2.286 5.143 5.143 5.143 4.571-2.286 4.571-2.286M30.286 16c0 7.89-6.396 14.286-14.286 14.286s-14.286-6.396-14.286-14.286v0c0-7.89 6.396-14.286 14.286-14.286s14.286 6.396 14.286 14.286v0z"></path>
</symbol>
<symbol id="icon-ellipse18" viewBox="0 0 32 32">
<path fill="#f7fbfb" style="fill: var(--color1, #f7fbfb)" d="M32 16c0 8.837-7.163 16-16 16s-16-7.163-16-16c0-8.837 7.163-16 16-16s16 7.163 16 16z"></path>
</symbol>
<symbol id="icon-ellipse20" viewBox="0 0 32 32">
<path fill="#a3a5a3" style="fill: var(--color2, #a3a5a3)" d="M32 16c0 8.837-7.163 16-16 16s-16-7.163-16-16c0-8.837 7.163-16 16-16s16 7.163 16 16z"></path>
</symbol>
<symbol id="icon-email" viewBox="0 0 32 32">
<path fill="#f7fbfb" style="fill: var(--color1, #f7fbfb)" d="M28.434 4.114h-24.869c-1.71 0-3.093 1.337-3.093 2.971l-0.016 17.829c0 1.634 1.399 2.971 3.109 2.971h24.869c1.71 0 3.109-1.337 3.109-2.971v-17.829c0-1.634-1.399-2.971-3.109-2.971zM27.813 10.429l-10.989 6.567c-0.236 0.14-0.52 0.223-0.823 0.223s-0.588-0.083-0.831-0.227l0.008 0.004-10.99-6.567c-0.158-0.086-0.291-0.197-0.398-0.329l-0.002-0.002c-0.171-0.207-0.275-0.475-0.275-0.768 0-0.25 0.076-0.482 0.206-0.675l-0.003 0.004c0.094-0.145 0.217-0.27 0.366-0.368 0.211-0.142 0.47-0.227 0.75-0.227 0.095 0 0.187 0.010 0.276 0.028l-0.009-0.002c0.176 0.034 0.342 0.102 0.488 0.199l10.414 6.225 10.414-6.225c0.211-0.142 0.47-0.226 0.749-0.226 0.096 0 0.189 0.010 0.279 0.029l-0.009-0.002c0.175 0.034 0.341 0.103 0.488 0.2 0.146 0.098 0.271 0.223 0.366 0.368 0.125 0.189 0.2 0.422 0.2 0.672 0 0.111-0.015 0.218-0.042 0.32l0.002-0.009c-0.046 0.165-0.123 0.32-0.233 0.456-0.109 0.135-0.242 0.246-0.393 0.328l-0.007 0.003z"></path>
</symbol>
<symbol id="icon-facebook" viewBox="0 0 32 32">
<path fill="#f7fbfb" style="fill: var(--color1, #f7fbfb)" d="M16 0.376c-8.626 0-15.685 7.043-15.685 15.718 0 7.843 5.741 14.353 13.24 15.529v-10.981h-3.985v-4.549h3.985v-3.466c0-3.938 2.337-6.103 5.929-6.103 1.709 0 3.497 0.298 3.497 0.298v3.875h-1.976c-1.944 0-2.556 1.208-2.556 2.447v2.949h4.36l-0.706 4.549h-3.655v10.981c7.547-1.225 13.239-7.695 13.239-15.494 0-0.012 0-0.025-0-0.037v0.002c0-8.675-7.059-15.718-15.686-15.718z"></path>
</symbol>
<symbol id="icon-instagram" viewBox="0 0 32 32">
<path fill="#f7fbfb" style="fill: var(--color1, #f7fbfb)" d="M9.412 0.313h13.176c5.020 0 9.098 4.079 9.098 9.098v13.176c0 0 0 0.001 0 0.001 0 5.024-4.073 9.097-9.097 9.097h-13.177c-5.019 0-9.097-4.079-9.097-9.098v-13.176c0-5.025 4.073-9.098 9.098-9.098v0zM9.098 3.451c-3.119 0-5.647 2.528-5.647 5.647v0 13.804c0 3.121 2.526 5.647 5.647 5.647h13.804c3.119 0 5.647-2.528 5.647-5.647v0-13.804c0-3.122-2.525-5.647-5.647-5.647h-13.804zM24.236 5.804c1.083 0 1.96 0.878 1.96 1.96s-0.878 1.96-1.96 1.96v0c-1.083 0-1.96-0.878-1.96-1.96s0.878-1.96 1.96-1.96v0zM16 8.157c4.331 0 7.843 3.511 7.843 7.843s-3.511 7.843-7.843 7.843v0c-4.331 0-7.843-3.511-7.843-7.843s3.511-7.843 7.843-7.843v0zM16 11.294c-2.599 0-4.706 2.107-4.706 4.706s2.107 4.706 4.706 4.706v0c2.599 0 4.706-2.107 4.706-4.706s-2.107-4.706-4.706-4.706v0z"></path>
</symbol>
<symbol id="icon-left" viewBox="0 0 32 32">
<path fill="#a3a5a3" style="fill: var(--color2, #a3a5a3)" d="M22.912 30.56c-0.386-0.005-0.735-0.155-0.998-0.398l0.001 0.001-13.987-13.779c-0.252-0.251-0.408-0.598-0.408-0.982s0.156-0.731 0.408-0.982l0-0 13.987-13.782c0.243-0.198 0.557-0.318 0.899-0.318 0.39 0 0.744 0.156 1.002 0.409l-0-0c0.255 0.251 0.413 0.601 0.413 0.987 0 0.338-0.121 0.647-0.322 0.888l0.002-0.002-13.008 12.8 13.008 12.8c0.252 0.251 0.408 0.598 0.408 0.982s-0.156 0.731-0.408 0.982l-0 0c-0.262 0.242-0.611 0.392-0.996 0.397h-0.001z"></path>
</symbol>
<symbol id="icon-logo" viewBox="0 0 32 32">
<path fill="#f7fbfb" style="fill: var(--color1, #f7fbfb)" d="M27.216 7.082l-8.832-4.926c-0.642-0.358-1.488-0.556-2.384-0.556s-1.742 0.198-2.384 0.556l-8.832 4.926c-1.336 0.746-2.384 2.499-2.384 3.99v9.856c0 1.491 1.047 3.244 2.384 3.99l8.832 4.926c0.642 0.358 1.489 0.555 2.384 0.555s1.742-0.198 2.384-0.555l8.832-4.928c1.337-0.746 2.384-2.499 2.384-3.99v-9.856c0-1.488-1.047-3.242-2.384-3.988zM5.278 24.090c-1.024-0.57-1.89-2.020-1.89-3.163v-4.212c3.144-0.238 5.007 0.566 7.333 1.578 2.093 0.911 4.61 2.004 8.722 2.592-0.768 0.143-1.544 0.274-2.318 0.404-4.2 0.708-8.172 1.382-10.344 3.641l-1.503-0.838zM18.543 15.518c-1.898 0.729-4.37 1.382-8.024 1.642-1.616-0.694-3.155-1.28-5.17-1.416l6.715-6.488 6.479 6.262zM18.074 13.716l4.828-4.666 3.63 3.506c-2.089 0.184-3.552 0.899-5.173 1.696-0.565 0.278-1.166 0.573-1.834 0.865l-1.45-1.402zM28.612 20.927c0 1.144-0.866 2.592-1.89 3.164l-8.832 4.927c-0.486 0.272-1.174 0.429-1.89 0.429s-1.404-0.155-1.89-0.428l-6.452-3.6c1.992-1.902 5.712-2.529 9.637-3.191 4.424-0.745 8.978-1.514 11.318-4.274v2.974zM28.612 16.17c-1.038 2.176-3.4 3.317-6.214 4.066-4.848-0.34-7.705-1.311-10.046-2.288 4.788-0.554 7.351-1.813 9.454-2.846 2.071-1.018 3.73-1.829 6.806-1.598v2.666zM28.612 12.548c-0.25-0.018-0.496-0.031-0.731-0.036l-4.629-4.474c-0.089-0.086-0.21-0.139-0.344-0.139-0.002 0-0.003 0-0.005 0h0c-0.135 0-0.258 0.053-0.349 0.139l0-0-5.177 5.003-4.965-4.796c-0.089-0.087-0.211-0.14-0.345-0.14-0.001 0-0.002 0-0.004 0h0c-0.135 0-0.258 0.054-0.349 0.14l0-0-7.742 7.482c-0.19 0.006-0.385 0.016-0.583 0.030v-4.685c0-1.144 0.866-2.592 1.89-3.164l8.832-4.928c0.488-0.272 1.176-0.427 1.89-0.427s1.404 0.156 1.89 0.428l8.832 4.927c1.024 0.572 1.89 2.021 1.89 3.164l-0.003 1.474z"></path>
</symbol>
<symbol id="icon-menu1" viewBox="0 0 32 32">
<path fill="none" stroke="#f7fbfb"   d="M2 8.5h28M2 16.5h28M2 23.5h28"></path>
</symbol>
<symbol id="icon-menu" viewBox="0 0 54 32">
<path fill="none" stroke="#f7fbfb" style="stroke: var(--color1, #f7fbfb)" stroke-linejoin="miter" stroke-linecap="round" stroke-miterlimit="10" stroke-width="5.0526" d="M3.368 3.368h47.158M3.368 16.842h47.158M3.368 28.632h47.158"></path>
</symbol>
<symbol id="icon-menu-3" viewBox="0 0 32 32">
<path fill="none" stroke="#f7fbfb" style="stroke: var(--color1, #f7fbfb)" stroke-linejoin="miter" stroke-linecap="round" stroke-miterlimit="10" stroke-width="2.4" d="M4.8 9.6h22.4M4.8 16h22.4M4.8 21.6h22.4"></path>
</symbol>
<symbol id="icon-th-menu" viewBox="0 0 24 24">
<path d="M19 17h-14c-1.103 0-2 0.897-2 2s0.897 2 2 2h14c1.103 0 2-0.897 2-2s-0.897-2-2-2z"></path>
<path d="M19 10h-14c-1.103 0-2 0.897-2 2s0.897 2 2 2h14c1.103 0 2-0.897 2-2s-0.897-2-2-2z"></path>
<path d="M19 3h-14c-1.103 0-2 0.897-2 2s0.897 2 2 2h14c1.103 0 2-0.897 2-2s-0.897-2-2-2z"></path>
</symbol>
<symbol id="icon-phone" viewBox="0 0 32 32">
<path fill="#f7fbfb" style="fill: var(--color1, #f7fbfb)" d="M21.776 0.64h-11.553c-0.958 0-1.876 0.368-2.553 1.023-0.65 0.624-1.055 1.498-1.058 2.468v23.738c0 0.926 0.381 1.813 1.058 2.469 0.659 0.632 1.555 1.022 2.542 1.022 0.004 0 0.007 0 0.011 0h11.551c0.958 0 1.877-0.368 2.554-1.022 0.65-0.624 1.054-1.499 1.057-2.469v-23.738c0-0.926-0.38-1.813-1.057-2.468-0.659-0.633-1.556-1.023-2.543-1.023-0.003 0-0.006 0-0.010 0h0zM15.999 29.964c-1.198 0-2.165-0.935-2.165-2.095 0-1.158 0.967-2.094 2.165-2.094 1.199 0 2.166 0.935 2.166 2.094 0 1.159-0.967 2.095-2.165 2.095zM22.497 24.379h-12.995v-19.55h12.994v19.55z"></path>
</symbol>
<symbol id="icon-place" viewBox="0 0 32 32">
<path fill="#f7fbfb" style="fill: var(--color1, #f7fbfb)" d="M16 0.457c-6.065 0-10.971 4.865-10.971 10.88 0 8.16 10.971 20.206 10.971 20.206s10.971-12.046 10.971-20.206c0-6.015-4.905-10.88-10.971-10.88zM16 15.223c-1.039 0-2.035-0.409-2.77-1.138-0.708-0.701-1.147-1.673-1.147-2.747v-0c0-1.031 0.413-2.019 1.147-2.747 0.711-0.704 1.689-1.138 2.768-1.138 0.001 0 0.002 0 0.002 0h-0c1.040 0 2.037 0.409 2.771 1.138 0.708 0.701 1.147 1.673 1.147 2.747v0c0 1.031-0.413 2.018-1.147 2.747-0.711 0.704-1.689 1.138-2.768 1.138-0.001 0-0.002 0-0.004 0h0z"></path>
</symbol>
<symbol id="icon-right" viewBox="0 0 32 32">
<path fill="#5b86a1" style="fill: var(--color3, #5b86a1)" d="M9.088 30.56c0.386-0.005 0.735-0.155 0.998-0.398l-0.001 0.001 13.986-13.781c0.253-0.251 0.409-0.598 0.409-0.982s-0.156-0.732-0.409-0.982l-0-0-13.986-13.781c-0.243-0.198-0.557-0.318-0.899-0.318-0.39 0-0.744 0.156-1.002 0.409l0-0c-0.255 0.251-0.413 0.601-0.413 0.987 0 0.338 0.121 0.647 0.322 0.888l-0.002-0.002 13.008 12.8-13.008 12.8c-0.252 0.251-0.408 0.598-0.408 0.982s0.156 0.731 0.408 0.982l0 0c0.262 0.242 0.611 0.392 0.996 0.397h0.001z"></path>
</symbol>
<symbol id="icon-round" viewBox="0 0 32 32">
<path fill="#5b86a1" style="fill: var(--color3, #5b86a1)" d="M16 6.666c-8.411 0-15.24 3.414-15.24 7.619 0 3.414 4.48 6.294 10.666 7.269v3.078c0 0.686 0.823 1.022 1.296 0.534l4.251-4.251c0.141-0.137 0.229-0.329 0.229-0.541s-0.088-0.404-0.229-0.541l-4.252-4.252c-0.137-0.135-0.326-0.218-0.534-0.218-0.421 0-0.762 0.341-0.762 0.762 0 0.002 0 0.003 0 0.005v-0 2.317c-4.798-0.854-7.617-2.895-7.617-4.16 0-1.615 4.632-4.571 12.19-4.571 7.559 0 12.191 2.957 12.191 4.571 0 1.006-1.829 2.56-5.059 3.566-0.624 0.198-1.035 0.777-1.035 1.432 0 1.022 0.99 1.768 1.95 1.463 4.313-1.341 7.193-3.733 7.193-6.461 0-4.206-6.827-7.619-15.239-7.619z"></path>
</symbol>
<symbol id="icon-star" viewBox="0 0 32 32">
<path fill="#f7fbfb" style="fill: var(--color1, #f7fbfb)" d="M14.843 0.881c0.146-0.511 0.609-0.878 1.157-0.878s1.011 0.367 1.155 0.87l0.002 0.008 2.943 9.484c0.152 0.508 0.611 0.873 1.157 0.881h9.523c1.179 0 1.67 1.58 0.715 2.306l-7.703 5.862c-0.307 0.242-0.503 0.614-0.503 1.031 0 0.141 0.022 0.276 0.063 0.403l-0.003-0.009 2.942 9.484c0.366 1.175-0.918 2.151-1.873 1.425l-7.702-5.861c-0.196-0.152-0.445-0.244-0.716-0.244s-0.52 0.092-0.719 0.246l0.003-0.002-7.702 5.861c-0.955 0.726-2.239-0.25-1.874-1.425l2.943-9.484c0.038-0.118 0.060-0.253 0.060-0.393 0-0.418-0.196-0.79-0.501-1.030l-0.003-0.002-7.702-5.862c-0.955-0.726-0.464-2.306 0.715-2.306h9.522c0.546-0.009 1.005-0.374 1.155-0.873l0.002-0.009 2.944-9.484z"></path>
</symbol>
<symbol id="icon-star-2" viewBox="0 0 32 32">
<path fill="#f7fbfb" style="fill: var(--color1, #f7fbfb)" d="M14.843 0.881c0.146-0.511 0.609-0.878 1.157-0.878s1.011 0.367 1.155 0.87l0.002 0.008 2.943 9.484c0.152 0.508 0.611 0.873 1.157 0.881h9.523c1.179 0 1.67 1.58 0.715 2.306l-7.703 5.862c-0.307 0.242-0.503 0.614-0.503 1.031 0 0.141 0.022 0.276 0.063 0.403l-0.003-0.009 2.942 9.484c0.366 1.175-0.918 2.151-1.873 1.425l-7.702-5.861c-0.196-0.152-0.445-0.244-0.716-0.244s-0.52 0.092-0.719 0.246l0.003-0.002-7.702 5.861c-0.955 0.726-2.239-0.25-1.874-1.425l2.943-9.484c0.038-0.118 0.060-0.253 0.060-0.393 0-0.418-0.196-0.79-0.501-1.030l-0.003-0.002-7.702-5.862c-0.955-0.726-0.464-2.306 0.715-2.306h9.522c0.546-0.009 1.005-0.374 1.155-0.873l0.002-0.009 2.944-9.484z"></path>
</symbol>
<symbol id="icon-telegram" viewBox="0 0 32 32">
<path fill="#f7fbfb" style="fill: var(--color1, #f7fbfb)" d="M15.991 0.313c-8.663 0-15.687 7.023-15.687 15.687s7.023 15.687 15.687 15.687v0c8.663 0 15.687-7.023 15.687-15.687s-7.023-15.687-15.687-15.687v0zM20.979 24.082c-0.168 0.411-0.564 0.695-1.028 0.695-0.2 0-0.388-0.053-0.55-0.146l0.005 0.003-4.258-3.31-2.732 2.522c-0.077 0.057-0.174 0.092-0.28 0.092-0.060 0-0.118-0.011-0.171-0.032l0.003 0.001 0.523-4.689 0.016 0.014 0.011-0.092s7.662-6.977 7.975-7.274c0.317-0.296 0.212-0.36 0.212-0.36 0.019-0.36-0.567 0-0.567 0l-10.153 6.532-4.228-1.44s-0.649-0.232-0.711-0.745c-0.064-0.508 0.731-0.784 0.731-0.784l16.811-6.68s1.382-0.615 1.382 0.405l-2.993 15.288z"></path>
</symbol>
</defs>
</svg>
